<svg xmlns="http://www.w3.org/2000/svg" viewBox="0 0 100 100" preserveAspectRatio="xMidYMid" width="200" height="200" style="shape-rendering: auto; display: block; background: transparent;" xmlns:xlink="http://www.w3.org/1999/xlink"><g><g transform="rotate(0 50 50)">
  <rect fill="#74a12e" height="12" width="3" ry="6" rx="1.5" y="24" x="48.5">
    <animate repeatCount="indefinite" begin="-0.5913978494623655s" dur="0.6451612903225806s" keyTimes="0;1" values="1;0" attributeName="opacity"></animate>
  </rect>
</g><g transform="rotate(30 50 50)">
  <rect fill="#74a12e" height="12" width="3" ry="6" rx="1.5" y="24" x="48.5">
    <animate repeatCount="indefinite" begin="-0.5376344086021505s" dur="0.6451612903225806s" keyTimes="0;1" values="1;0" attributeName="opacity"></animate>
  </rect>
</g><g transform="rotate(60 50 50)">
  <rect fill="#74a12e" height="12" width="3" ry="6" rx="1.5" y="24" x="48.5">
    <animate repeatCount="indefinite" begin="-0.48387096774193544s" dur="0.6451612903225806s" keyTimes="0;1" values="1;0" attributeName="opacity"></animate>
  </rect>
</g><g transform="rotate(90 50 50)">
  <rect fill="#74a12e" height="12" width="3" ry="6" rx="1.5" y="24" x="48.5">
    <animate repeatCount="indefinite" begin="-0.4301075268817204s" dur="0.6451612903225806s" keyTimes="0;1" values="1;0" attributeName="opacity"></animate>
  </rect>
</g><g transform="rotate(120 50 50)">
  <rect fill="#74a12e" height="12" width="3" ry="6" rx="1.5" y="24" x="48.5">
    <animate repeatCount="indefinite" begin="-0.3763440860215054s" dur="0.6451612903225806s" keyTimes="0;1" values="1;0" attributeName="opacity"></animate>
  </rect>
</g><g transform="rotate(150 50 50)">
  <rect fill="#74a12e" height="12" width="3" ry="6" rx="1.5" y="24" x="48.5">
    <animate repeatCount="indefinite" begin="-0.3225806451612903s" dur="0.6451612903225806s" keyTimes="0;1" values="1;0" attributeName="opacity"></animate>
  </rect>
</g><g transform="rotate(180 50 50)">
  <rect fill="#74a12e" height="12" width="3" ry="6" rx="1.5" y="24" x="48.5">
    <animate repeatCount="indefinite" begin="-0.26881720430107525s" dur="0.6451612903225806s" keyTimes="0;1" values="1;0" attributeName="opacity"></animate>
  </rect>
</g><g transform="rotate(210 50 50)">
  <rect fill="#74a12e" height="12" width="3" ry="6" rx="1.5" y="24" x="48.5">
    <animate repeatCount="indefinite" begin="-0.2150537634408602s" dur="0.6451612903225806s" keyTimes="0;1" values="1;0" attributeName="opacity"></animate>
  </rect>
</g><g transform="rotate(240 50 50)">
  <rect fill="#74a12e" height="12" width="3" ry="6" rx="1.5" y="24" x="48.5">
    <animate repeatCount="indefinite" begin="-0.16129032258064516s" dur="0.6451612903225806s" keyTimes="0;1" values="1;0" attributeName="opacity"></animate>
  </rect>
</g><g transform="rotate(270 50 50)">
  <rect fill="#74a12e" height="12" width="3" ry="6" rx="1.5" y="24" x="48.5">
    <animate repeatCount="indefinite" begin="-0.1075268817204301s" dur="0.6451612903225806s" keyTimes="0;1" values="1;0" attributeName="opacity"></animate>
  </rect>
</g><g transform="rotate(300 50 50)">
  <rect fill="#74a12e" height="12" width="3" ry="6" rx="1.5" y="24" x="48.5">
    <animate repeatCount="indefinite" begin="-0.05376344086021505s" dur="0.6451612903225806s" keyTimes="0;1" values="1;0" attributeName="opacity"></animate>
  </rect>
</g><g transform="rotate(330 50 50)">
  <rect fill="#74a12e" height="12" width="3" ry="6" rx="1.5" y="24" x="48.5">
    <animate repeatCount="indefinite" begin="0s" dur="0.6451612903225806s" keyTimes="0;1" values="1;0" attributeName="opacity"></animate>
  </rect>
</g><g></g></g><!-- [ldio] generated by https://loading.io --></svg>